<svg xmlns="http://www.w3.org/2000/svg" width="22" height="22" viewBox="0 0 22 22" fill="none">
<symbol id='nagarro-logo' viewBox="0 0 22 22">
  <g clip-path="url(#clip0_1_813)">
    <mask id="mask0_1_813" style="mask-type:luminance" maskUnits="userSpaceOnUse" x="4" y="5" width="14" height="11">
      <path d="M4.09229 5.32422H17.0526V15.888H4.09229V5.32422Z" fill="#47D7AC"/>
    </mask>
    <g mask="url(#mask0_1_813)">
      <path fill-rule="evenodd" clip-rule="evenodd" d="M7.42575 7.364C7.33324 7.364 7.25673 7.39518 7.19701 7.45757C6.99743 7.66608 6.8852 8.28279 7.22591 9.33452C7.53858 10.2997 8.14394 11.3401 8.94873 12.3034C9.0544 11.763 9.11245 11.1672 9.11245 10.5382C9.11245 8.68881 8.2206 7.64157 7.65842 7.41585C7.57227 7.3813 7.4946 7.364 7.42575 7.364ZM12.176 8.87518C12.1071 9.2627 12.0698 9.67584 12.0698 10.1049C12.0698 11.7925 12.8151 13.3671 13.4839 13.7248C13.6861 13.833 13.8121 13.79 13.8997 13.7349C14.0487 13.606 14.1338 13.3945 14.1527 13.1062C14.2218 12.0513 13.4088 10.3367 12.176 8.87518ZM9.45785 12.8739C11.3343 14.8414 13.3515 15.5259 14.413 15.1745C14.9576 14.9942 15.458 14.467 15.822 13.6901C16.2193 12.8422 16.4293 11.7743 16.4293 10.6016C16.4293 9.36257 16.1909 8.21182 15.758 7.36123C15.3508 6.56103 14.815 6.1203 14.2495 6.1203C13.4394 6.1203 12.7312 6.9322 12.3555 8.13435C13.8709 9.79735 14.8604 11.8394 14.7747 13.1469C14.744 13.6152 14.574 13.9887 14.2831 14.2269L14.2586 14.245C13.9363 14.4602 13.5568 14.4706 13.19 14.2745C12.2286 13.7603 11.4465 11.8898 11.4465 10.1049C11.4465 9.47646 11.5203 8.86621 11.6607 8.30468C9.61517 6.17805 7.62886 5.4303 6.3265 6.30536C5.34805 6.96433 4.7156 8.65083 4.7156 10.6016C4.7156 13.1217 5.68946 15.0959 6.93276 15.0959C7.70951 15.0959 8.37923 14.2875 8.76433 13.0421C7.76313 11.9283 7.00706 10.6817 6.63291 9.52659C6.26668 8.39597 6.30814 7.48475 6.74675 7.02657C7.03167 6.72884 7.44865 6.65994 7.89069 6.83743C8.80755 7.20548 9.73582 8.5949 9.73582 10.5382C9.73582 11.3675 9.63953 12.1641 9.45785 12.8739ZM13.8028 15.8881C12.456 15.8881 10.7396 15.0169 9.24919 13.5499C9.17898 13.7414 9.10156 13.9237 9.01717 14.0954C8.50301 15.1425 7.76272 15.7192 6.93276 15.7192C6.10079 15.7192 5.35465 15.1553 4.83181 14.1316C4.35492 13.1977 4.09229 11.9441 4.09229 10.6016C4.09229 8.4162 4.81506 6.57177 5.97857 5.78811C6.78513 5.24626 7.79924 5.17771 8.9114 5.58974C9.85596 5.93973 10.8716 6.64097 11.8706 7.62981C11.9634 7.38388 12.0708 7.15186 12.1918 6.93715C12.7154 6.00843 13.4462 5.49693 14.2495 5.49693C15.8476 5.49693 17.0526 7.6915 17.0526 10.6016C17.0526 11.8651 16.8223 13.0246 16.3865 13.9546C16.1727 14.4109 15.9155 14.7969 15.6221 15.1018C15.3139 15.4222 14.973 15.6457 14.6089 15.7663C14.361 15.8483 14.0901 15.8881 13.8028 15.8881Z" fill="#47D7AC"/>
    </g>
  </g>
  <defs>
    <clipPath id="clip0_1_813">
      <rect width="21.184" height="21.184" fill="white"/>
    </clipPath>
  </defs>
  </symbol>

<symbol id='nagarro' xmlns="http://www.w3.org/2000/svg" width="42" height="9" viewBox="0 0 42 9" fill="none">
  <path d="M1.07918 6.23997V2.74461C1.41813 2.20441 2.22312 1.84428 2.9116 1.84428C3.51535 1.84428 3.92844 2.04553 4.1085 2.38448C4.19324 2.54336 4.26738 2.90349 4.26738 3.36953V6.23997H5.29481V3.13651C5.29481 2.62809 5.26303 2.29974 5.16771 1.99257C4.96646 1.30409 4.33094 0.869817 3.22937 0.869817C2.20194 0.869817 1.39694 1.31468 1.058 1.84428V0.996921H0.0517578V6.23997H1.07918Z" fill="white"/>
  <path d="M12.4796 6.18701V5.30788C12.3313 5.36084 12.1195 5.37143 12.0347 5.37143C11.8123 5.37143 11.6534 5.28669 11.5899 5.1384C11.5475 5.02189 11.5369 4.71472 11.5369 4.39696C11.5369 3.9521 11.5475 3.2848 11.5475 2.89289C11.5475 2.03494 11.378 1.57948 10.9438 1.26172C10.6048 1.00751 10.0222 0.848633 9.33376 0.848633C8.61351 0.848633 7.71318 1.00751 7.01411 1.47356V2.4798H7.05648C7.67082 1.98198 8.61351 1.84428 9.11133 1.84428C9.64093 1.84428 10.0752 1.92902 10.2976 2.18323C10.4777 2.39507 10.5307 2.64928 10.5307 2.94585V3.12592C10.3188 3.09414 9.95869 3.07296 9.75744 3.07296C8.94186 3.07296 8.40167 3.10473 7.76614 3.30598C7.12003 3.50723 6.60102 3.9415 6.60102 4.76768C6.60102 5.65741 7.2895 6.37767 8.70883 6.37767C9.60916 6.37767 10.287 6.12346 10.6895 5.61504C10.7955 6.03873 11.1238 6.31412 11.8017 6.31412C12.0347 6.31412 12.2995 6.28234 12.4796 6.18701ZM10.5413 4.82064C10.1811 5.25492 9.53501 5.49853 8.85712 5.49853C8.02035 5.49853 7.68141 5.18077 7.68141 4.7465C7.68141 4.30163 7.96739 4.10038 8.39107 4.00506C8.76179 3.92032 9.18548 3.88854 9.66212 3.88854C9.89514 3.88854 10.287 3.92032 10.5307 3.9521C10.5307 4.55584 10.5307 4.64058 10.5413 4.82064Z" fill="white"/>
  <path d="M13.6487 7.86055C14.0512 8.15713 14.9409 8.41134 15.9578 8.41134C17.3347 8.41134 18.2033 8.01943 18.6375 7.36273C18.8494 7.04497 19.04 6.55773 19.04 5.69978V0.996921H18.0762V1.67481C17.8431 1.21935 16.9958 0.848633 16.0637 0.848633C14.6867 0.848633 13.0661 1.61126 13.0661 3.64493C13.0661 5.30788 14.3054 6.19761 15.9366 6.19761C16.9852 6.19761 17.7584 5.73156 18.0338 5.30788V5.73156C18.0338 6.32471 17.9596 6.63188 17.7054 6.91786C17.4194 7.24622 16.8263 7.46865 16.0213 7.46865C15.1422 7.46865 14.263 7.20385 13.6911 6.79076H13.6487V7.86055ZM18.0126 4.36519C17.7054 4.88419 16.964 5.24432 16.1484 5.24432C15.121 5.24432 14.1147 4.75709 14.1147 3.62374C14.1147 2.28915 15.1528 1.78073 16.159 1.78073C16.9852 1.78073 17.7266 2.09849 18.0126 2.68105V4.36519Z" fill="white"/>
  <path d="M26.2885 6.18701V5.30788C26.1402 5.36084 25.9284 5.37143 25.8437 5.37143C25.6212 5.37143 25.4624 5.28669 25.3988 5.1384C25.3564 5.02189 25.3458 4.71472 25.3458 4.39696C25.3458 3.9521 25.3564 3.2848 25.3564 2.89289C25.3564 2.03494 25.187 1.57948 24.7527 1.26172C24.4137 1.00751 23.8312 0.848633 23.1427 0.848633C22.4224 0.848633 21.5221 1.00751 20.823 1.47356V2.4798H20.8654C21.4798 1.98198 22.4224 1.84428 22.9203 1.84428C23.4499 1.84428 23.8841 1.92902 24.1066 2.18323C24.2866 2.39507 24.3396 2.64928 24.3396 2.94585V3.12592C24.1278 3.09414 23.7676 3.07296 23.5664 3.07296C22.7508 3.07296 22.2106 3.10473 21.5751 3.30598C20.929 3.50723 20.41 3.9415 20.41 4.76768C20.41 5.65741 21.0984 6.37767 22.5178 6.37767C23.4181 6.37767 24.096 6.12346 24.4985 5.61504C24.6044 6.03873 24.9328 6.31412 25.6106 6.31412C25.8437 6.31412 26.1085 6.28234 26.2885 6.18701ZM24.3502 4.82064C23.9901 5.25492 23.3439 5.49853 22.6661 5.49853C21.8293 5.49853 21.4903 5.18077 21.4903 4.7465C21.4903 4.30163 21.7763 4.10038 22.2 4.00506C22.5707 3.92032 22.9944 3.88854 23.4711 3.88854C23.7041 3.88854 24.096 3.92032 24.3396 3.9521C24.3396 4.55584 24.3396 4.64058 24.3502 4.82064Z" fill="white"/>
  <path d="M28.2626 6.23997V2.71283C28.4639 2.28915 29.0358 1.93961 29.9256 1.93961C30.2433 1.93961 30.4764 1.98198 30.6988 2.09849H30.7412V1.00751C30.5505 0.891001 30.3281 0.848633 30.0209 0.848633C29.057 0.848633 28.4215 1.43119 28.252 1.86547V0.996921H27.2352V6.23997H28.2626Z" fill="white"/>
  <path d="M32.7829 6.23997V2.71283C32.9841 2.28915 33.5561 1.93961 34.4458 1.93961C34.7636 1.93961 34.9966 1.98198 35.219 2.09849H35.2614V1.00751C35.0707 0.891001 34.8483 0.848633 34.5411 0.848633C33.5773 0.848633 32.9417 1.43119 32.7723 1.86547V0.996921H31.7554V6.23997H32.7829Z" fill="white"/>
  <path d="M41.9996 3.61315C41.9996 1.98198 40.8027 0.848633 38.8855 0.848633C37.0319 0.848633 35.7397 2.03494 35.7397 3.61315C35.7397 5.20196 36.9895 6.37767 38.8537 6.37767C40.7285 6.37767 41.9996 5.19136 41.9996 3.61315ZM40.9298 3.61315C40.9298 4.61939 40.1248 5.42439 38.8855 5.42439C37.7204 5.42439 36.8095 4.71472 36.8095 3.61315C36.8095 2.56454 37.6568 1.79132 38.8749 1.79132C40.146 1.79132 40.9298 2.59632 40.9298 3.61315Z" fill="white"/>
</symbol>

<symbol id='eye' width="24" height="24" viewBox="0 0 24 24" fill="none" xmlns="http://www.w3.org/2000/svg">
<g id="remove_red_eye" clip-path="url(#clip0_1_752)">
<path id="Vector" d="M12 4.5C7 4.5 2.73 7.61 1 12C2.73 16.39 7 19.5 12 19.5C17 19.5 21.27 16.39 23 12C21.27 7.61 17 4.5 12 4.5ZM12 17C9.24 17 7 14.76 7 12C7 9.24 9.24 7 12 7C14.76 7 17 9.24 17 12C17 14.76 14.76 17 12 17ZM12 9C10.34 9 9 10.34 9 12C9 13.66 10.34 15 12 15C13.66 15 15 13.66 15 12C15 10.34 13.66 9 12 9Z" fill="#13294B"/>
</g>
<defs>
<clipPath id="clip0_1_752">
<rect width="24" height="24" fill="white"/>
</clipPath>
</defs>
</symbol>


<symbol id='dropdown' width="16" height="16" viewBox="0 0 16 16" fill="none" xmlns="http://www.w3.org/2000/svg">
<g id="octicon:chevron-up-16">
<path id="Vector" d="M11.78 5.47C11.8497 5.53957 11.9049 5.62218 11.9426 5.71312C11.9803 5.80407 11.9998 5.90155 11.9998 6C11.9998 6.09845 11.9803 6.19594 11.9426 6.28688C11.9049 6.37782 11.8497 6.46044 11.78 6.53L7.53 10.78C7.46044 10.8497 7.37782 10.9049 7.28688 10.9426C7.19594 10.9803 7.09845 10.9998 7 10.9998C6.90155 10.9998 6.80407 10.9803 6.71312 10.9426C6.62218 10.9049 6.53957 10.8497 6.47 10.78L2.22 6.53C2.1504 6.4604 2.09519 6.37777 2.05752 6.28683C2.01986 6.1959 2.00047 6.09843 2.00047 6C2.00047 5.90157 2.01986 5.8041 2.05752 5.71317C2.09519 5.62223 2.1504 5.5396 2.22 5.47C2.2896 5.4004 2.37223 5.34519 2.46317 5.30752C2.55411 5.26985 2.65157 5.25047 2.75 5.25047C2.84843 5.25047 2.9459 5.26985 3.03684 5.30752C3.12777 5.34519 3.2104 5.4004 3.28 5.47L7 9.189L10.72 5.47C10.7896 5.40034 10.8722 5.34507 10.9631 5.30736C11.0541 5.26966 11.1516 5.25025 11.25 5.25025C11.3485 5.25025 11.4459 5.26966 11.5369 5.30736C11.6278 5.34507 11.7104 5.40034 11.78 5.47Z" fill="white"/>
</g>
</symbol>

<symbol id='success' width="20" height="20" viewBox="0 0 20 20" fill="none" xmlns="http://www.w3.org/2000/svg">
<path d="M10 0C4.48 0 0 4.48 0 10C0 15.52 4.48 20 10 20C15.52 20 20 15.52 20 10C20 4.48 15.52 0 10 0ZM8 15L3 10L4.41 8.59L8 12.17L15.59 4.58L17 6L8 15Z" fill="#3AAB94"/>
</symbol>

<symbol id='close' width="24" height="24" viewBox="0 0 24 24" fill="none" xmlns="http://www.w3.org/2000/svg">
<g clip-path="url(#clip0_72_317)">
<path d="M19 6.41L17.59 5L12 10.59L6.41 5L5 6.41L10.59 12L5 17.59L6.41 19L12 13.41L17.59 19L19 17.59L13.41 12L19 6.41Z" fill="#13294B"/>
</g>
<defs>
<clipPath id="clip0_72_317">
<rect width="24" height="24" fill="white"/>
</clipPath>
</defs>
</symbol>

<symbol id='search' width="18" height="18" viewBox="0 0 18 18" fill="none" xmlns="http://www.w3.org/2000/svg">
<g clip-path="url(#clip0_72_607)">
<path d="M11.625 10.5H11.0325L10.8225 10.2975C11.5575 9.4425 12 8.3325 12 7.125C12 4.4325 9.8175 2.25 7.125 2.25C4.4325 2.25 2.25 4.4325 2.25 7.125C2.25 9.8175 4.4325 12 7.125 12C8.3325 12 9.4425 11.5575 10.2975 10.8225L10.5 11.0325V11.625L14.25 15.3675L15.3675 14.25L11.625 10.5ZM7.125 10.5C5.2575 10.5 3.75 8.9925 3.75 7.125C3.75 5.2575 5.2575 3.75 7.125 3.75C8.9925 3.75 10.5 5.2575 10.5 7.125C10.5 8.9925 8.9925 10.5 7.125 10.5Z" fill="#4E5E78"/>
</g>
<defs>
<clipPath id="clip0_72_607">
<rect width="18" height="18" fill="white"/>
</clipPath>
</defs>
</symbol>


<symbol id='upload' width="32" height="22" viewBox="0 0 32 22" fill="none" xmlns="http://www.w3.org/2000/svg">
<path d="M25.8 8.38668C24.8933 3.78668 20.8533 0.333344 16 0.333344C12.1467 0.333344 8.8 2.52001 7.13333 5.72001C3.12 6.14668 0 9.54668 0 13.6667C0 18.08 3.58667 21.6667 8 21.6667H25.3333C29.0133 21.6667 32 18.68 32 15C32 11.48 29.2667 8.62668 25.8 8.38668ZM18.6667 12.3333V17.6667H13.3333V12.3333H9.33333L16 5.66668L22.6667 12.3333H18.6667Z" fill="#13294B"/>
</symbol>

<symbol id='upload_2' width="24" height="24" viewBox="0 0 24 24" fill="none" xmlns="http://www.w3.org/2000/svg">
<g clip-path="url(#clip0_1_3508)">
<path d="M9 16H15V10H19L12 3L5 10H9V16ZM5 18H19V20H5V18Z" fill="white"/>
</g>
<defs>
<clipPath id="clip0_1_3508">
<rect width="24" height="24" fill="white"/>
</clipPath>
</defs>
</symbol>

<symbol id='add' width="20" height="20" viewBox="0 0 20 20" fill="none" xmlns="http://www.w3.org/2000/svg">
<path d="M11 5H9V9H5V11H9V15H11V11H15V9H11V5ZM10 0C4.49 0 0 4.49 0 10C0 15.51 4.49 20 10 20C15.51 20 20 15.51 20 10C20 4.49 15.51 0 10 0ZM10 18C5.59 18 2 14.41 2 10C2 5.59 5.59 2 10 2C14.41 2 18 5.59 18 10C18 14.41 14.41 18 10 18Z" fill="#47D7AC"/>
</symbol>

<!-- VG
1 optimized vector image
~3% smaller -->


<symbol id='save' width="24" height="24" viewBox="0 0 24 24" fill="none" xmlns="http://www.w3.org/2000/svg">
    <g clip-path="url(#ukiw3a9rta)">
        <path d="M17 3H5a2 2 0 0 0-2 2v14a2 2 0 0 0 2 2h14c1.1 0 2-.9 2-2V7l-4-4zm-5 16c-1.66 0-3-1.34-3-3s1.34-3 3-3 3 1.34 3 3-1.34 3-3 3zm3-10H5V5h10v4z" fill="#fff"/>
    </g>
    <defs>
        <clipPath id="ukiw3a9rta">
            <path fill="#fff" d="M0 0h24v24H0z"/>
        </clipPath>
    </defs>
</symbol>
<symbol id='edit' width="24" height="24" viewBox="0 0 24 24" fill="none" xmlns="http://www.w3.org/2000/svg">
    <g clip-path="url(#keyq9crh8a)">
        <path d="M3 17.25V21h3.75L17.81 9.94l-3.75-3.75L3 17.25zM20.71 7.04a.996.996 0 0 0 0-1.41l-2.34-2.34a.996.996 0 0 0-1.41 0l-1.83 1.83 3.75 3.75 1.83-1.83z" fill="#fff"/>
    </g>
    <defs>
        <clipPath id="keyq9crh8a">
            <path fill="#fff" d="M0 0h24v24H0z"/>
        </clipPath>
    </defs>
</symbol>

<symbol id='delete' width="24" height="24" viewBox="0 0 24 24" fill="none" xmlns="http://www.w3.org/2000/svg">
    <g clip-path="url(#xb54bc9v2a)">
        <path d="M6 19c0 1.1.9 2 2 2h8c1.1 0 2-.9 2-2V7H6v12zM19 4h-3.5l-1-1h-5l-1 1H5v2h14V4z" fill="#fff"/>
    </g>
    <defs>
        <clipPath id="xb54bc9v2a">
            <path fill="#fff" d="M0 0h24v24H0z"/>
        </clipPath>
    </defs>
</symbol>

<symbol id='check' width="70" height="70" viewBox="0 0 70 70" fill="none" xmlns="http://www.w3.org/2000/svg">
<path d="M35 0C15.6719 0 0 15.6719 0 35C0 54.3281 15.6719 70 35 70C54.3281 70 70 54.3281 70 35C70 15.6719 54.3281 0 35 0ZM50.1172 23.5703L33.6641 46.3828C33.4341 46.7038 33.131 46.9653 32.7797 47.1457C32.4285 47.3261 32.0394 47.4203 31.6445 47.4203C31.2497 47.4203 30.8605 47.3261 30.5093 47.1457C30.1581 46.9653 29.855 46.7038 29.625 46.3828L19.8828 32.8828C19.5859 32.4688 19.8828 31.8906 20.3906 31.8906H24.0547C24.8516 31.8906 25.6094 32.2734 26.0781 32.9297L31.6406 40.6484L43.9219 23.6172C44.3906 22.9688 45.1406 22.5781 45.9453 22.5781H49.6094C50.1172 22.5781 50.4141 23.1562 50.1172 23.5703Z" fill="#47D7AC"/>
</symbol>

<symbol id='alert' width="80" height="75" viewBox="0 0 80 75" fill="none" xmlns="http://www.w3.org/2000/svg">
<g clip-path="url(#clip0_1_2723)">
<path d="M40 0C20.6719 0 5 15.6719 5 35C5 54.3281 20.6719 70 40 70C59.3281 70 75 54.3281 75 35C75 15.6719 59.3281 0 40 0ZM37.5 18.125C37.5 17.7812 37.7812 17.5 38.125 17.5H41.875C42.2188 17.5 42.5 17.7812 42.5 18.125V39.375C42.5 39.7188 42.2188 40 41.875 40H38.125C37.7812 40 37.5 39.7188 37.5 39.375V18.125ZM40 52.5C39.0187 52.48 38.0843 52.0761 37.3974 51.375C36.7105 50.6739 36.3258 49.7315 36.3258 48.75C36.3258 47.7685 36.7105 46.8261 37.3974 46.125C38.0843 45.4239 39.0187 45.02 40 45C40.9813 45.02 41.9157 45.4239 42.6026 46.125C43.2895 46.8261 43.6742 47.7685 43.6742 48.75C43.6742 49.7315 43.2895 50.6739 42.6026 51.375C41.9157 52.0761 40.9813 52.48 40 52.5Z" fill="#47D7AC"/>
</g>
<defs>
<clipPath id="clip0_1_2723">
<rect width="80" height="75" fill="white"/>
</clipPath>
</defs>
</symbol>

<symbol id="file" width="30" height="30" viewBox="0 0 30 30" fill="none" xmlns="http://www.w3.org/2000/svg">
    <g clip-path="url(#rq60tgac9a)">
        <path d="M7.5 2.5A2.497 2.497 0 0 0 5.013 5L5 25c0 1.375 1.112 2.5 2.487 2.5H22.5c1.375 0 2.5-1.125 2.5-2.5V10l-7.5-7.5h-10zm8.75 8.75V4.375l6.875 6.875H16.25z" fill="#13294B"/>
    </g>
    <defs>
        <clipPath id="rq60tgac9a">
            <path fill="#fff" d="M0 0h30v30H0z"/>
        </clipPath>
    </defs>
</symbol>


</svg>